<mxfile host="app.diagrams.net" modified="2022-04-04T15:35:05.885Z" agent="5.0 (Macintosh; Intel Mac OS X 10_15_7) AppleWebKit/537.36 (KHTML, like Gecko) Chrome/100.0.4896.60 Safari/537.36" etag="aXZsFn2iyBMZyWY40o4n" version="17.2.4" type="github">
  <diagram id="Kh4mpyDNx9xMKhyEWU7g" name="Page-1">
    <mxGraphModel dx="930" dy="614" grid="1" gridSize="10" guides="1" tooltips="1" connect="1" arrows="1" fold="1" page="1" pageScale="1" pageWidth="827" pageHeight="1169" math="0" shadow="0">
      <root>
        <mxCell id="0" />
        <mxCell id="1" parent="0" />
        <mxCell id="9Z8SxXE-EUtQWCVT0TbR-2" value="" style="aspect=fixed;perimeter=ellipsePerimeter;html=1;align=center;shadow=0;dashed=0;spacingTop=3;image;image=img/lib/active_directory/cell_phone.svg;" vertex="1" parent="1">
          <mxGeometry x="100" y="210" width="40" height="95.24" as="geometry" />
        </mxCell>
        <mxCell id="9Z8SxXE-EUtQWCVT0TbR-6" style="edgeStyle=orthogonalEdgeStyle;rounded=0;orthogonalLoop=1;jettySize=auto;html=1;" edge="1" parent="1" source="9Z8SxXE-EUtQWCVT0TbR-3">
          <mxGeometry relative="1" as="geometry">
            <mxPoint x="580" y="330" as="targetPoint" />
            <Array as="points">
              <mxPoint x="365" y="370" />
              <mxPoint x="365" y="340" />
            </Array>
          </mxGeometry>
        </mxCell>
        <mxCell id="9Z8SxXE-EUtQWCVT0TbR-3" value="" style="image;html=1;image=img/lib/clip_art/computers/Laptop_128x128.png" vertex="1" parent="1">
          <mxGeometry x="80" y="330" width="80" height="80" as="geometry" />
        </mxCell>
        <mxCell id="9Z8SxXE-EUtQWCVT0TbR-5" style="edgeStyle=orthogonalEdgeStyle;rounded=0;orthogonalLoop=1;jettySize=auto;html=1;" edge="1" parent="1" source="9Z8SxXE-EUtQWCVT0TbR-4" target="9Z8SxXE-EUtQWCVT0TbR-2">
          <mxGeometry relative="1" as="geometry" />
        </mxCell>
        <mxCell id="9Z8SxXE-EUtQWCVT0TbR-4" value="" style="image;html=1;image=img/lib/clip_art/computers/Server_128x128.png" vertex="1" parent="1">
          <mxGeometry x="570" y="270" width="80" height="80" as="geometry" />
        </mxCell>
        <mxCell id="9Z8SxXE-EUtQWCVT0TbR-8" style="edgeStyle=orthogonalEdgeStyle;rounded=0;orthogonalLoop=1;jettySize=auto;html=1;" edge="1" parent="1" source="9Z8SxXE-EUtQWCVT0TbR-7">
          <mxGeometry relative="1" as="geometry">
            <mxPoint x="210" y="175" as="targetPoint" />
          </mxGeometry>
        </mxCell>
        <mxCell id="9Z8SxXE-EUtQWCVT0TbR-7" value="" style="aspect=fixed;html=1;points=[];align=center;image;fontSize=12;image=img/lib/azure2/general/Files.svg;" vertex="1" parent="1">
          <mxGeometry x="360" y="140" width="64" height="70" as="geometry" />
        </mxCell>
        <mxCell id="9Z8SxXE-EUtQWCVT0TbR-9" value="" style="dashed=0;outlineConnect=0;html=1;align=center;labelPosition=center;verticalLabelPosition=bottom;verticalAlign=top;shape=mxgraph.weblogos.chrome" vertex="1" parent="1">
          <mxGeometry x="150" y="280" width="74.8" height="75.4" as="geometry" />
        </mxCell>
        <mxCell id="9Z8SxXE-EUtQWCVT0TbR-10" value="html&lt;br&gt;css&lt;br&gt;java script" style="text;html=1;strokeColor=none;fillColor=none;align=center;verticalAlign=middle;whiteSpace=wrap;rounded=0;" vertex="1" parent="1">
          <mxGeometry x="360" y="70" width="60" height="50" as="geometry" />
        </mxCell>
      </root>
    </mxGraphModel>
  </diagram>
</mxfile>
